<?xml version="1.0" encoding="UTF-8" standalone="no"?>
<svg width="64" height="64" viewBox="0 0 1024 1024" version="1.1" xmlns="http://www.w3.org/2000/svg">
<path d="M512 981.333333a466.261333 466.261333 0 0 1-331.861333-137.472A466.261333 466.261333 0 0 1 42.666667 512a466.261333 466.261333 0 0 1 137.472-331.861333A466.261333 466.261333 0 0 1 512 42.666667c14.165333 0 28.544 0.64 42.666667 1.92V512h-64A149.333333 149.333333 0 0 0 341.333333 661.333333a149.333333 149.333333 0 0 0 149.333334 149.333334 149.333333 149.333333 0 0 0 149.333333-149.333334V60.330667a472.618667 472.618667 0 0 1 244.522667 166.186666A465.066667 465.066667 0 0 1 981.333333 512a466.261333 466.261333 0 0 1-137.472 331.861333A466.261333 466.261333 0 0 1 512 981.333333z" fill="#dbdbdb"></path>
</svg>