<?xml version="1.0" standalone="no"?><!DOCTYPE svg PUBLIC "-//W3C//DTD SVG 1.1//EN" "http://www.w3.org/Graphics/SVG/1.1/DTD/svg11.dtd"><svg t="1661347697376" class="icon" viewBox="0 0 1024 1024" version="1.1" xmlns="http://www.w3.org/2000/svg" p-id="986" width="48" height="48" xmlns:xlink="http://www.w3.org/1999/xlink"><defs><style type="text/css"></style></defs><path d="M512 981.333333a466.261333 466.261333 0 0 1-331.861333-137.472A466.261333 466.261333 0 0 1 42.666667 512a466.261333 466.261333 0 0 1 137.472-331.861333A466.261333 466.261333 0 0 1 512 42.666667c14.165333 0 28.544 0.64 42.666667 1.92V512h-64A149.333333 149.333333 0 0 0 341.333333 661.333333a149.333333 149.333333 0 0 0 149.333334 149.333334 149.333333 149.333333 0 0 0 149.333333-149.333334V60.330667a472.618667 472.618667 0 0 1 244.522667 166.186666A465.066667 465.066667 0 0 1 981.333333 512a466.261333 466.261333 0 0 1-137.472 331.861333A466.261333 466.261333 0 0 1 512 981.333333z" p-id="987" fill="#C98FFF"></path></svg>