<?xml version="1.0" encoding="UTF-8" standalone="no"?>
<svg viewBox="0 0 1024 1024" version="1.1" xmlns="http://www.w3.org/2000/svg" width="64" height="64"><path d="M876.860952 2.779429a24.502857 24.502857 0 0 0-25.185523 1.536L182.857143 465.554286V24.380952a24.380952 24.380952 0 1 0-48.761905 0v975.238096a24.380952 24.380952 0 1 0 48.761905 0V558.445714l668.818286 461.263238a24.673524 24.673524 0 0 0 25.185523 1.511619A24.380952 24.380952 0 0 0 889.904762 999.619048V24.380952a24.380952 24.380952 0 0 0-13.04381-21.601523zM841.142857 953.197714L201.411048 512 841.142857 70.802286v882.395428z" fill="#FFFFFF" ></path></svg>