<?xml version="1.0" encoding="UTF-8" standalone="no"?>
<svg viewBox="0 0 1024 1024" version="1.1" xmlns="http://www.w3.org/2000/svg" width="64" height="64"><path d="M864 448a32 32 0 0 0-32 32v320c0 52.928-43.072 96-96 96h-512c-52.928 0-96-43.072-96-96v-512C128 235.072 171.072 192 224 192h320a32 32 0 0 0 0-64h-320A160.192 160.192 0 0 0 64 288v512C64 888.256 135.808 960 224 960h512c88.256 0 160-71.744 160-160v-320a32 32 0 0 0-32-32z" fill="#262626"></path><path d="M950.656 73.344a32 32 0 0 0-45.248 0l-448 448a32 32 0 0 0 45.248 45.312l448-448a32.128 32.128 0 0 0 0-45.312z" fill="#FFFFFF"></path></svg>