<?xml version="1.0" encoding="UTF-8" standalone="no"?>
<svg viewBox="0 0 1024 1024" version="1.1" xmlns="http://www.w3.org/2000/svg" width="64" height="64"><path d="M838.4 96c-115.2-44.8-236.8-19.2-320 70.4l-6.4 12.8-6.4-12.8C422.4 76.8 300.8 51.2 185.6 96 70.4 140.8 0 243.2 0 364.8 0 448 32 524.8 89.6 582.4l396.8 371.2c12.8 6.4 19.2 6.4 25.6 6.4s12.8 0 19.2-6.4l396.8-371.2c64-57.6 96-134.4 96-217.6 0-121.6-70.4-224-185.6-268.8z m51.2 435.2L512 883.2 134.4 531.2C89.6 492.8 64 428.8 64 364.8 64 256 140.8 185.6 204.8 153.6c25.6-12.8 57.6-19.2 83.2-19.2 57.6 0 115.2 19.2 166.4 70.4l32 32c12.8 19.2 38.4 19.2 51.2 6.4l32-32c76.8-83.2 179.2-83.2 249.6-57.6 64 32 140.8 102.4 140.8 211.2 0 64-25.6 128-70.4 166.4z" fill="#262626"></path></svg>