<?xml version="1.0" encoding="UTF-8" standalone="no"?>
<svg t="1652015658749" class="icon" viewBox="0 0 1076 1024" version="1.1" xmlns="http://www.w3.org/2000/svg" p-id="2701" width="67.25" height="64" xmlns:xlink="http://www.w3.org/1999/xlink"><path d="M861.288608 184.904378l-407.168808 178.436071 0.780657 2.007405h-3.791766v366.909171A94.459595 94.459595 0 0 0 434.937922 724.896537c-42.936179-14.609453-84.422566 5.68765-92.786757 44.609017s19.627968 83.30734 62.564148 97.916794 84.311043-5.68765 92.675234-44.609018a70.259203 70.259203 0 0 0 0-26.430843h3.011108V454.677412L816.345023 315.16271l-4.126334 277.802657a83.084295 83.084295 0 0 0-16.059247-8.029623A66.913526 66.913526 0 0 0 703.372686 635.678501a101.931605 101.931605 0 0 0 62.564147 109.403616A66.913526 66.913526 0 0 0 858.72359 694.33936a87.65672 87.65672 0 0 0 0-29.553475h3.011108V209.885428h-0.669135z" fill="#262626" p-id="2702"></path><path d="M1025.226748 101.150948v-33.456764h-51.188848V33.456763h-51.30037V0H0v922.849052h51.188848v33.456764h51.188847v33.456763h51.188848v33.456763h922.849053V101.150948zM51.188848 912.031366H11.152254V11.152254h901.102157v22.304509H51.188848z m51.188847 33.456763H62.006535V44.609018h901.213678v22.862121H102.377695z m51.188848 33.456763h-40.371161V78.065781H1014.855151v23.085167H153.566543z m912.031366 33.456763H164.38423V111.522544h901.213679z" fill="#262626" p-id="2703"></path></svg>