<?xml version="1.0" encoding="UTF-8" standalone="no"?>
<svg viewBox="0 0 1024 1024" version="1.1" xmlns="http://www.w3.org/2000/svg" width="128" height="128"><path d="M511.088746 64.775282c-246.926856 0-447.091688 200.158692-447.091688 447.089641 0 246.934019 200.164832 447.090665 447.091688 447.090665 246.934019 0 447.087595-200.157669 447.087595-447.090665C958.17634 264.933975 758.022765 64.775282 511.088746 64.775282zM511.088746 899.344932c-213.647915 0-387.480009-173.829024-387.480009-387.478985 0-213.647915 173.832094-387.476939 387.480009-387.476939s387.475915 173.830047 387.475915 387.476939C898.565684 725.514885 724.736661 899.344932 511.088746 899.344932z" p-id="904" fill="#262626"></path><path d="M446.554964 385.340275l189.789531 126.539998L446.554964 638.392642 446.554964 385.340275zM385.309064 752.807485l361.41333-240.927211L385.309064 270.924409 385.309064 752.807485z" fill="#262626"></path></svg>