<?xml version="1.0" encoding="UTF-8" standalone="no"?>
<svg t="1652015754375" class="icon" viewBox="0 0 1024 1024" version="1.1" xmlns="http://www.w3.org/2000/svg" p-id="3599" width="64" height="64" xmlns:xlink="http://www.w3.org/1999/xlink"><path d="M448 481.28a21.333333 21.333333 0 0 0 21.333333-21.333333v-21.333334a21.333333 21.333333 0 0 0-21.333333-21.333333H370.005333a21.333333 21.333333 0 0 0-21.333333 21.333333v21.333334a21.333333 21.333333 0 0 0 21.333333 21.333333H448zM554.666667 438.613333a21.333333 21.333333 0 0 1 21.333333-21.333333h77.994667a21.333333 21.333333 0 0 1 21.333333 21.333333v21.333334a21.333333 21.333333 0 0 1-21.333333 21.333333H576a21.333333 21.333333 0 0 1-21.333333-21.333333v-21.333334zM618.666667 640a21.333333 21.333333 0 0 0 21.333333-21.333333V597.333333a21.333333 21.333333 0 0 0-21.333333-21.333333h-213.333334a21.333333 21.333333 0 0 0-21.333333 21.333333v21.333334a21.333333 21.333333 0 0 0 21.333333 21.333333h213.333334z" p-id="3600" fill="#262626"></path><path d="M853.333333 512a341.333333 341.333333 0 1 1-682.666666 0 341.333333 341.333333 0 0 1 682.666666 0zM234.666667 512a277.333333 277.333333 0 1 0 554.666666 0 277.333333 277.333333 0 0 0-554.666666 0z" p-id="3601" fill="#FFFFFF"></path></svg>