<?xml version="1.0" encoding="UTF-8" standalone="no"?>
<svg t="1652015799538" class="icon" viewBox="0 0 1024 1024" version="1.1" xmlns="http://www.w3.org/2000/svg" p-id="4523" width="64" height="64" xmlns:xlink="http://www.w3.org/1999/xlink"><path d="M694.4 854.4H195.2l48 44.8c9.6 6.4 16 16 16 28.8-3.2 19.2-19.2 32-38.4 32-9.6 0-22.4-6.4-28.8-12.8l-108.8-96c-12.8-12.8-16-35.2 0-48L192 704c6.4-6.4 19.2-9.6 28.8-9.6 19.2 0 35.2 16 35.2 35.2 0 9.6-6.4 19.2-12.8 25.6l-41.6 38.4h496c112 0 198.4-89.6 198.4-198.4v-86.4c0-19.2 12.8-32 32-32s32 12.8 32 32v86.4c0 140.8-118.4 259.2-265.6 259.2zM329.6 169.6h496l-48-44.8c-9.6-6.4-16-16-16-28.8 3.2-19.2 19.2-32 38.4-32 9.6 0 22.4 6.4 28.8 12.8l108.8 96c12.8 12.8 16 35.2 0 48L832 320c-6.4 6.4-19.2 9.6-28.8 9.6-19.2 0-35.2-16-35.2-35.2 0-9.6 6.4-19.2 12.8-25.6l41.6-38.4H326.4C217.6 233.6 128 323.2 128 435.2v89.6c0 19.2-12.8 32-32 32s-32-12.8-32-32v-86.4C64 288 182.4 169.6 329.6 169.6z" p-id="4524" fill="#FFFFFF"></path></svg>