<?xml version="1.0" encoding="UTF-8" standalone="no"?>
<svg t="1652016180199" class="icon" viewBox="0 0 1024 1024" version="1.1" xmlns="http://www.w3.org/2000/svg" p-id="8284" width="128" height="128" xmlns:xlink="http://www.w3.org/1999/xlink"><path d="M743.232 210.837333c144.896 144.896 149.781333 376.789333 14.656 527.573334l160.32 160.298666a8.533333 8.533333 0 0 1 0 12.074667l-33.173333 33.173333a8.533333 8.533333 0 0 1-12.074667 0l-161.557333-161.557333c-150.762667 120.746667-371.477333 111.253333-511.232-28.501333-149.973333-149.973333-149.973333-393.109333 0-543.061334 149.973333-149.973333 393.088-149.973333 543.061333 0z m-497.813333 45.248c-124.970667 124.970667-124.970667 327.594667 0 452.565334 124.970667 124.949333 327.594667 124.949333 452.565333 0 124.949333-124.970667 124.949333-327.594667 0-452.565334-124.970667-124.970667-327.594667-124.970667-452.565333 0z" fill="#FFFFFF" p-id="8285"></path></svg>